<svg width="262" height="262" viewBox="0 0 262 262" fill="none" xmlns="http://www.w3.org/2000/svg">
<rect width="262" height="262" rx="27" fill="#0B7DC2"/>
<path fill-rule="evenodd" clip-rule="evenodd" d="M116.827 135.141L159.03 92.9389C162.345 89.6239 167.7 89.6239 171.057 92.9389L177.007 98.8889C180.322 102.204 180.322 107.601 177.007 110.916L122.82 165.061C119.505 168.376 114.107 168.376 110.792 165.061L86.9925 141.261C83.6775 137.946 83.6775 132.549 86.9925 129.234L92.9425 123.284C96.2575 119.969 101.655 119.969 104.97 123.284L116.827 135.141ZM167.997 107.899C169.655 106.241 169.655 103.606 167.997 101.949C166.34 100.291 163.705 100.291 162.047 101.949L116.827 147.169L101.952 132.294C100.295 130.636 97.66 130.636 96.0025 132.294C95.2071 133.08 94.7594 134.151 94.7594 135.269C94.7594 136.387 95.2071 137.458 96.0025 138.244L113.852 156.094C115.51 157.751 118.145 157.751 119.802 156.094L167.997 107.899Z" fill="white"/>
<rect x="44" y="50" width="174" height="162" rx="17" stroke="white" stroke-width="18"/>
</svg>
